<svg xmlns="http://www.w3.org/2000/svg" width="449.123" height="151.319" viewBox="0 0 449.123 151.319">
  <g id="litecoin_logo_icon_170221" transform="translate(-11.412 -13.63)">
    <path id="Path_9" data-name="Path 9" d="M73.973,47.379,62.109,91.758l-9.4,3.7L49.32,108.091l9.553-3.235-6.318,26.2,68.417.153,4.16-16.8H83.527L88.92,94.221l11.25-4.779,3.235-12.326-10.94,3.7,8.629-32.977Zm13.1-33.739a75.655,75.655,0,1,1,0-.009Zm0,0" transform="translate(0 0)" fill="#b8b9bb" fill-rule="evenodd"/>
    <path id="Path_10" data-name="Path 10" d="M77.148,29.982a5.066,5.066,0,1,1-5.066-5.066A5.146,5.146,0,0,1,77.148,29.982Zm193.272.148a5.066,5.066,0,1,1-5.066-5.066,5.084,5.084,0,0,1,5.066,5.066ZM50.2,22.18h6.683V93.389H50.2ZM106.52,47.3l-.1,6.078-9.521.1V93.449H90.214V53.438h-8.1V47.152h8.1V29.931H96.9V47.152h9.623Zm20.567-.2c6.586-1.317,13.773-.462,19.245,3.545,7.09,5.066,9.928,14.485,8.814,22.786H116.138a16.179,16.179,0,0,0,6.378,11.092c7.192,5.371,18.742,3.952,23.8-3.545l.911-.91c2.228.305,4.354.91,6.484,1.317a21.45,21.45,0,0,1-11.092,10.94,25.282,25.282,0,0,1-18.839.508,22.34,22.34,0,0,1-12.664-12.359A27.286,27.286,0,0,1,111.72,59,21.64,21.64,0,0,1,126.972,47.05Zm-6.179,10.63a17.339,17.339,0,0,0-4.76,9.623H148.5c-.462-5.87-4.455-11.545-10.233-13.371a17.31,17.31,0,0,0-17.323,3.7Zm45.895-3.54c8.712-9.623,25.42-10.33,34.849-1.419l-4.76,4.761a18.637,18.637,0,0,0-23.8-.1c-7.857,6.683-7.395,20.567.809,26.742a18.308,18.308,0,0,0,22.994-.809l4.76,4.659c-8.92,8.1-24.108,8.412-33.023.407-9.521-8.5-10.33-24.819-1.821-34.239Zm120.33.462c2.533-5.371,9.013-8.2,15.192-8.2a18.193,18.193,0,0,1,8,1.618c4.659,2.024,7.293,5.976,8.611,10.538a28.177,28.177,0,0,1,1.109,8.2l-.1,26.742h-6.586V67.215c0-3.952-.809-8.2-3.545-11.092-2.736-2.736-6.988-3.443-10.63-2.634a13.771,13.771,0,0,0-10.33,7.09,17.222,17.222,0,0,0-1.724,7.8V93.6H280.44V47.508l6.683.1ZM223.619,47c6.586-1.216,13.681-.2,19.245,3.545a22.309,22.309,0,0,1,9.826,15.095c1.017,6.378,0,13.172-3.7,18.487a23.578,23.578,0,0,1-19.652,10.131,23.322,23.322,0,0,1-17.623-6.785c-7.7-7.395-8.92-19.957-3.952-29.173a22.572,22.572,0,0,1,15.807-11.347Zm.6,6.683a16.364,16.364,0,0,0-11.749,10.33c-2.634,7.192-.407,16.107,5.976,20.461,7.5,5.468,19.245,4.053,24.718-3.545a18.4,18.4,0,0,0,1.216-19.144c-3.7-7.09-12.664-10.131-20.151-8.1ZM68.741,93.449V47.461l6.378-.2.1,46.191Zm199.849,0H262.1l.1-46.191h6.378Zm0,0" transform="translate(140.495 30.967)" fill="#626264" fill-rule="evenodd"/>
  </g>
</svg>
